<?xml version="1.0" encoding="UTF-8" standalone="no"?>
<svg
   xmlns:dc="http://purl.org/dc/elements/1.1/"
   xmlns:cc="http://creativecommons.org/ns#"
   xmlns:rdf="http://www.w3.org/1999/02/22-rdf-syntax-ns#"
   xmlns:svg="http://www.w3.org/2000/svg"
   xmlns="http://www.w3.org/2000/svg"
   viewBox="0 0 138.80267 161.46933"
   xml:space="preserve"
   version="1.1"
   id="svg2"><metadata
     id="metadata8"><rdf:RDF><cc:Work
         rdf:about=""><dc:format>image/svg+xml</dc:format><dc:type
           rdf:resource="http://purl.org/dc/dcmitype/StillImage" /></cc:Work></rdf:RDF></metadata><defs
     id="defs6"><clipPath
       id="clipPath16"
       clipPathUnits="userSpaceOnUse"><path
         id="path18"
         d="m 0,121.102 104.102,0 L 104.102,0 0,0 0,121.102 Z" /></clipPath></defs><g
     transform="matrix(1.3333333,0,0,-1.3333333,0,161.46933)"
     id="g10"><g
       id="g12"><g
         clip-path="url(#clipPath16)"
         id="g14"><g
           transform="translate(47.6973,90.8125)"
           id="g20"><path
             id="path22"
             style="fill:#d6e03d;fill-opacity:1;fill-rule:nonzero;stroke:none"
             d="m 0,0 c -1.506,1.506 -5.032,5.035 -10.162,5.035 l -8.401,0 c 0.762,4.213 1.813,7.932 3.05,10.793 l 8.355,0 c 3.023,0 5.369,-1.939 7.267,-3.834 L 9.535,2.566 C 8.193,1.615 7.193,0.617 6.576,0 L 3.287,-3.289 0,0 Z" /></g><g
           transform="translate(55.2217,101.1816)"
           id="g24"><path
             id="path26"
             style="fill:#6cb33f;fill-opacity:1;fill-rule:nonzero;stroke:none"
             d="M 0,0 1.624,1.625 C 3.522,3.52 5.868,5.459 8.892,5.459 l 7.801,0 c 1.24,-2.863 2.288,-6.58 3.049,-10.793 l -10.527,0 c -1.125,0 -2.256,-0.176 -3.364,-0.52 L 0,0 Z" /></g><g
           transform="translate(44.1855,74.9336)"
           id="g28"><path
             id="path30"
             style="fill:#6cb33f;fill-opacity:1;fill-rule:nonzero;stroke:none"
             d="m 0,0 12.984,12.984 c 1.897,1.897 4.243,3.834 7.267,3.834 l 15.133,0 c 0.108,-1.539 0.163,-3.076 0.163,-4.574 0,-1.711 -0.074,-3.435 -0.231,-5.262 l -10.474,0 c -5.124,0 -8.654,-3.531 -10.16,-5.039 L 6.367,-6.367 0,0 Z" /></g><g
           transform="translate(41.2754,77.8145)"
           id="g32"><path
             id="path34"
             style="fill:#6cb33f;fill-opacity:1;fill-rule:nonzero;stroke:none"
             d="m 0,0 c -2.974,2.758 -5.986,4.102 -9.197,4.102 l -7.479,0 c -0.157,1.834 -0.232,3.558 -0.232,5.261 0,1.481 0.053,3.018 0.162,4.575 l 13.006,0 c 3.025,0 5.371,-1.938 7.266,-3.834 L 6.815,6.816 0,0 Z" /></g><g
           transform="translate(50.7012,105.7012)"
           id="g36"><path
             id="path38"
             style="fill:#6cb33f;fill-opacity:1;fill-rule:nonzero;stroke:none"
             d="M 0,0 C -1.48,1.48 -4.908,4.906 -9.879,5.031 -4.822,11.23 0.315,14.729 1.349,15.4 2.379,14.732 7.514,11.244 12.6,5 7.91,4.656 4.674,1.42 3.252,0 L 1.625,-1.625 0,0 Z" /></g><g
           transform="translate(52.0498,44.8613)"
           id="g40"><path
             id="path42"
             style="fill:#6cb33f;fill-opacity:1;fill-rule:nonzero;stroke:none"
             d="M 0,0 C -5.157,0 -10.245,1.611 -14.743,4.67 L 9.712,29.123 c 1.896,1.895 4.244,3.836 7.266,3.836 l 13.394,0 C 28.435,14.148 15.436,0.006 0.003,0 L 0,0 Z" /></g><g
           transform="translate(34.0615,52.0742)"
           id="g44"><path
             id="path46"
             style="fill:#6cb33f;fill-opacity:1;fill-rule:nonzero;stroke:none"
             d="m 0,0 c -6.828,6.131 -11.323,15.477 -12.382,25.746 l 10.399,0 c 3.021,0 5.369,-1.941 7.266,-3.836 L 13.597,13.598 0,0 Z" /></g><g
           transform="translate(14.9375,15.2949)"
           id="g48"><path
             id="path50"
             style="fill:#6cb33f;fill-opacity:1;fill-rule:nonzero;stroke:none"
             d="M 0,0 -2.865,0 -5.008,5.785 -7.131,0 l -2.867,0 -4.94,13.365 3.87,0 2.504,-6.767 2.503,6.767 2.123,0 2.504,-6.767 2.504,6.767 3.869,0 L 0,0 Z" /></g><path
           id="path52"
           style="fill:#6cb33f;fill-opacity:1;fill-rule:nonzero;stroke:none"
           d="m 22.678,28.678 3.611,0 0,-13.4 -3.611,0 0,13.4 z" /><g
           transform="translate(30.4355,15.2773)"
           id="g54"><path
             id="path56"
             style="fill:#6cb33f;fill-opacity:1;fill-rule:nonzero;stroke:none"
             d="m 0,0 0,13.4 3.711,0 0,-10.084 7.047,0 L 10.758,0 0,0 Z" /></g><g
           transform="translate(50.248,25.4141)"
           id="g58"><path
             id="path60"
             style="fill:#6cb33f;fill-opacity:1;fill-rule:nonzero;stroke:none"
             d="m 0,0 -2.057,0 0,-6.871 2.057,0 c 0.48,0 0.934,0.088 1.354,0.267 0.419,0.178 0.787,0.422 1.095,0.733 0.313,0.312 0.557,0.676 0.735,1.098 0.179,0.419 0.269,0.865 0.269,1.337 0,0.471 -0.09,0.918 -0.269,1.338 -0.178,0.42 -0.422,0.785 -0.735,1.096 C 2.141,-0.691 1.773,-0.445 1.354,-0.268 0.934,-0.09 0.48,0 0,0 m 0.412,-10.137 -5.99,0 0,13.401 5.99,0 C 1.346,3.264 2.219,3.088 3.037,2.736 3.854,2.387 4.568,1.908 5.178,1.305 5.787,0.699 6.27,-0.012 6.621,-0.828 6.973,-1.646 7.146,-2.516 7.146,-3.436 7.146,-4.357 6.973,-5.227 6.621,-6.043 6.27,-6.861 5.787,-7.572 5.178,-8.176 4.568,-8.781 3.854,-9.26 3.037,-9.609 2.219,-9.961 1.346,-10.137 0.412,-10.137" /></g><g
           transform="translate(60.3145,15.2773)"
           id="g62"><path
             id="path64"
             style="fill:#6cb33f;fill-opacity:1;fill-rule:nonzero;stroke:none"
             d="m 0,0 0,13.4 10.688,0 0,-3.193 -7.202,0 0,-1.918 7.202,0 0,-3.195 -7.202,0 0,-1.916 7.202,0 L 10.688,0 0,0 Z" /></g><g
           transform="translate(81.4043,25.6484)"
           id="g66"><path
             id="path68"
             style="fill:#6cb33f;fill-opacity:1;fill-rule:nonzero;stroke:none"
             d="m 0,0 c -0.506,0 -0.975,-0.102 -1.406,-0.303 -0.434,-0.201 -0.803,-0.468 -1.114,-0.802 -0.31,-0.334 -0.558,-0.723 -0.736,-1.166 -0.176,-0.444 -0.265,-0.913 -0.265,-1.407 0,-0.484 0.089,-0.951 0.265,-1.398 0.178,-0.449 0.426,-0.842 0.736,-1.176 0.311,-0.334 0.68,-0.602 1.114,-0.803 0.431,-0.201 0.9,-0.3 1.406,-0.3 0.508,0 0.975,0.099 1.406,0.3 0.434,0.201 0.805,0.469 1.115,0.803 0.311,0.334 0.555,0.727 0.735,1.176 0.178,0.447 0.267,0.914 0.267,1.398 0,0.494 -0.089,0.963 -0.267,1.407 -0.18,0.443 -0.424,0.832 -0.735,1.166 C 2.211,-0.771 1.84,-0.504 1.406,-0.303 0.975,-0.102 0.508,0 0,0 m 0,-10.758 c -0.992,0 -1.916,0.184 -2.779,0.553 -0.864,0.367 -1.619,0.873 -2.264,1.512 -0.645,0.638 -1.152,1.388 -1.527,2.252 -0.373,0.863 -0.563,1.785 -0.563,2.763 0,0.979 0.19,1.899 0.563,2.762 0.375,0.865 0.882,1.615 1.527,2.254 0.645,0.639 1.4,1.144 2.264,1.519 0.863,0.375 1.787,0.561 2.779,0.561 0.979,0 1.902,-0.186 2.771,-0.561 0.87,-0.375 1.625,-0.88 2.27,-1.519 0.647,-0.639 1.156,-1.389 1.529,-2.254 0.375,-0.863 0.563,-1.783 0.563,-2.762 0,-0.978 -0.188,-1.9 -0.563,-2.763 C 6.197,-7.305 5.688,-8.055 5.041,-8.693 4.396,-9.332 3.641,-9.838 2.771,-10.205 1.902,-10.574 0.979,-10.758 0,-10.758" /></g><g
           transform="translate(97.4707,25.6914)"
           id="g70"><path
             id="path72"
             style="fill:#6cb33f;fill-opacity:1;fill-rule:nonzero;stroke:none"
             d="m 0,0 -2.09,0 0,-2.885 2.09,0 c 0.207,0 0.402,0.037 0.586,0.112 0.185,0.074 0.346,0.177 0.484,0.308 0.137,0.133 0.246,0.285 0.328,0.455 0.081,0.172 0.122,0.362 0.122,0.567 0,0.207 -0.041,0.396 -0.122,0.568 C 1.316,-0.705 1.207,-0.553 1.07,-0.422 0.932,-0.289 0.771,-0.188 0.586,-0.113 0.402,-0.039 0.207,0 0,0 m 2.605,-10.414 -2.328,4.144 -2.263,0 0.017,-4.144 -3.697,0 0,13.4 6.719,0 c 0.32,0 0.65,-0.06 0.984,-0.181 C 2.371,2.684 2.693,2.523 3.004,2.322 3.316,2.119 3.602,1.893 3.867,1.641 4.133,1.387 4.357,1.127 4.541,0.863 4.771,0.527 4.947,0.141 5.068,-0.303 5.188,-0.746 5.25,-1.17 5.25,-1.572 5.25,-2.24 5.094,-2.861 4.783,-3.438 4.471,-4.012 4.041,-4.496 3.488,-4.889 l 3.143,-5.525 -4.026,0 z" /></g></g></g></g></svg>
